<svg width="17" height="22" fill="none" xmlns="http://www.w3.org/2000/svg"><path d="M13.418 20.996H3.666c-1.577 0-2.759-1.293-2.66-2.885L2.089 6.17c0-.3.296-.498.591-.498h11.724c.295 0 .492.199.59.497l.986 11.841c.197 1.592-1.084 2.985-2.562 2.985z" stroke="#F9F6F2" stroke-miterlimit="10"/><path d="M4.848 7.866V4.78C4.848 2.691 6.522 1 8.59 1s3.744 1.692 3.744 3.781v2.985" stroke="#F9F6F2" stroke-miterlimit="10" stroke-linecap="round"/><path d="M13.418 20.996H3.666c-1.577 0-2.759-1.293-2.66-2.885L2.089 6.17c0-.3.296-.498.591-.498h11.724c.295 0 .492.199.59.497l.986 11.841c.197 1.592-1.084 2.985-2.562 2.985z" fill="#F9F6F2" stroke="#F9F6F2" stroke-miterlimit="10"/><path d="M4.848 7.866V4.78C4.848 2.691 6.522 1 8.59 1s3.744 1.692 3.744 3.781v2.985" stroke="#F9F6F2" stroke-miterlimit="10" stroke-linecap="round"/></svg>