<svg width="270" height="31" fill="none" xmlns="http://www.w3.org/2000/svg"><g clip-path="url(#clip0)" fill="#1A1A1A"><path d="M17.326 30.208c.778-.226 1.333-.566 2-.905.555-.34 1.11-.792 1.443-1.245.333-.452.667-1.018.889-1.47.222-.566.333-1.019.333-1.584 0-.566-.111-1.132-.333-1.697-.222-.566-.556-1.019-1-1.471-.444-.453-1.11-.792-1.777-1.132-.777-.339-1.666-.678-2.776-.791l-1.778-.34 1.778-.453c1.554-.452 2.776-1.13 3.554-1.923.777-.905 1.221-1.81 1.221-2.941 0-1.81-.888-3.281-2.776-4.3-1.889-1.018-4.776-1.584-8.552-1.584H0c.333.113.555.227.889.453.333.34.555.679.777 1.244.111.453.222 1.132.222 2.037v15.047c0 .792-.11 1.471-.222 2.037-.111.566-.333.905-.666 1.244A2.414 2.414 0 01.11 31h10.44c2.999-.113 5.331-.34 6.775-.792zM4.776 8.938l.333-.113c1.11-.226 2.332-.453 3.776-.453 1.333 0 2.555.113 3.554.453 1 .34 1.888.679 2.555 1.131.666.453 1.221 1.132 1.666 1.697.333.68.555 1.358.555 2.15 0 1.584-.666 2.828-1.999 3.847-1.333.905-3.332 1.357-6.22 1.357-.777 0-1.555 0-2.221-.113-.666 0-1.222-.113-1.777-.226l-.444-.113V8.938h.222zm.444 21.044l-.333-.113v-10.41l.333-.112c.333.113.889 0 1.444 0h2.221c1.555 0 2.888.113 3.999.452 1.11.34 2.11.68 2.887 1.245.778.566 1.333 1.131 1.777 1.923.334.679.556 1.471.556 2.263 0 .679-.223 1.47-.556 2.15-.333.678-.888 1.244-1.555 1.697-.666.452-1.555.905-2.554 1.131-1 .226-2.221.453-3.443.453a32.402 32.402 0 01-4.776-.68zm35.986-1.697a5.02 5.02 0 01-.889 1.244c-.333.34-.777.566-1.222.792-.333.113-.666.227-1 .227h6.443c-.112 0-.223 0-.334-.114-.444-.113-.777-.226-1.11-.339a1.143 1.143 0 01-.667-.566c-.11-.226-.11-.452-.11-.678 0-.453.221-1.245.666-2.15l1.999-3.847h11.217l1.777 3.507c.556 1.132.889 1.924.889 2.49 0 .339-.111.905-.778 1.244-.222.113-.666.34-1.11.34h8.219c-.111 0-.222 0-.334-.114-.444-.113-.888-.34-1.332-.679-.334-.339-.778-.678-1.111-1.244-.333-.453-.666-1.131-1.11-1.923L51.867 8.033h-.222l-9.552 18.555c-.333.678-.666 1.244-.889 1.697zm9.551-16.292l5.331 10.522H45.315l5.442-10.522zm52.756 15.387a6.59 6.59 0 01-1.444 1.584c-.555.339-1.222.678-1.888.791-.667.114-1.444.227-2.333.227H85.742l18.104-21.497H84.632s-.223 3.62 0 3.168c.222-.566.555-1.131 1-1.47.443-.34.999-.68 1.776-.793a17.172 17.172 0 012.777-.226h9.663l-18.215 21.27v.113h21.769s.444-3.62.111-3.168zm36.763-18.555c.222.113.444.226.666.452.222.227.333.453.444.68.111.225.111.565.222.904v8.259h-13.661v-6.9c0-1.131.111-1.923.222-2.376.112-.226.334-.453.556-.679.222-.113.444-.34.777-.452.222-.114.445-.114.667-.227h-7.553c.333.113.667.227.889.34.333.113.555.226.666.452.222.227.333.34.444.68.111.225.111.565.223.904v16.066c0 1.47-.223 2.376-.556 2.828-.333.453-.888.68-1.555.792h7.553c-.333-.113-.667-.226-.889-.34-.222-.112-.444-.225-.666-.452-.222-.113-.333-.339-.444-.678-.112-.227-.112-.566-.223-.906V19.46h13.661v7.354c0 .792-.111 1.47-.222 1.923-.111.566-.333.905-.666 1.245-.333.226-.555.452-1 .452h7.22c-.334-.113-.667-.226-.889-.34-.333-.112-.555-.226-.666-.452-.222-.113-.334-.452-.445-.679-.111-.226-.111-.565-.222-.905V11.993c0-1.245.111-1.924.222-2.376.111-.227.334-.453.556-.68.222-.112.444-.339.777-.452.222-.113.444-.113.667-.226h-7.553c.222.34.555.453.778.566zm25.545 19.46a5.024 5.024 0 01-.889 1.244c-.333.34-.777.566-1.221.792-.334.113-.667.227-1 .227h6.442c-.111 0-.222 0-.333-.114a13.7 13.7 0 01-1.111-.339 1.148 1.148 0 01-.667-.566c-.111-.226-.111-.452-.111-.678 0-.453.223-1.245.667-2.15l1.999-3.847h11.218l1.777 3.507c.555 1.132.888 1.924.888 2.49 0 .339-.111.905-.777 1.244-.222.113-.667.34-1.111.34h8.219c-.111 0-.222 0-.333-.114-.445-.113-.889-.34-1.333-.679-.333-.339-.778-.678-1.111-1.244-.333-.453-.666-1.131-1.11-1.923l-9.33-18.442h-.222l-9.552 18.555c-.444.678-.666 1.244-.999 1.697zm9.551-16.292l5.332 10.522H169.93l5.442-10.522zm54.978-3.508h-4.776c.333.113.667.227 1 .453.333.226.555.679.666 1.131.111.453.222 1.132.222 1.924v14.142l-17.437-17.65h-5.553.111c.444.113.777.227 1.11.34.334.113.556.226.889.452.222.113.555.34.777.566.334.226.667.566 1 1.018l.111.113V27.04c0 .792-.111 1.358-.222 1.924-.111.565-.333.905-.667 1.13-.333.227-.666.453-.999.566h4.665c-.334-.113-.667-.226-.889-.452-.333-.226-.555-.679-.666-1.131a8.273 8.273 0 01-.222-1.924v-15.16L228.24 31h.111V12.106c0-.792.111-1.358.222-1.924.111-.452.333-.905.666-1.131.333-.226.667-.453 1.111-.566zm37.873 20.139c-.334.34-.667.566-1 .679-.333.226-.777.34-1.111.452-.444.114-.888.227-1.444.227h-6.663c-.667 0-1.111 0-1.444-.113-.445-.114-.667-.227-.889-.453-.222-.226-.333-.566-.333-1.018V19.12h7.552v-.565c-.333 0-.666.113-1.11.113h-6.442V9.05h7.997c.888 0 1.777 0 2.332.113.666.113 1.222.226 1.666.566.444.34.777.792 1 1.244.111.227.222.566.333.905V8.486h-18.548c.555.113 1.111.34 1.444.68.444.452.666 1.357.666 2.94v14.822c0 1.131-.111 1.923-.222 2.376-.111.226-.333.452-.555.679-.222.226-.556.34-.778.452-.222.113-.444.113-.666.226h18.881l1.333-4.299c-1.111 1.358-1.222 1.697-1.999 2.263zM57.088 0h3.998l-4.332 4.752h-3.11L57.089 0z"/></g><defs><clipPath id="clip0"><path fill="#fff" d="M0 0h270v31H0z"/></clipPath></defs></svg>