<svg width="17" height="17" fill="none" xmlns="http://www.w3.org/2000/svg"><path d="M15.613 12.552l-2.998-2.024a.936.936 0 00-1.2.225l-.9 1.125c-.149.15-.299.224-.449.075l-.225-.075c-.524-.3-1.274-.675-2.623-2.099-1.35-1.424-1.799-2.099-2.099-2.623l-.075-.15c-.15-.15-.075-.375.075-.525l1.125-.9c.374-.224.45-.749.224-1.124L4.445 1.384c-.3-.374-.825-.524-1.2-.225l-1.274.75c-.374.225-.674.6-.824 1.05-.45 1.648-.075 4.571 4.122 8.769C8.642 15.1 11.116 16 12.84 16c.375 0 .825-.075 1.2-.15.45-.15.824-.45 1.049-.824l.75-1.275c.3-.374.15-.899-.225-1.199zm-1.35-4.797a4.702 4.702 0 00-4.722-4.722m3.223 4.722a3.2 3.2 0 00-3.223-3.223m1.724 3.223c0-.974-.75-1.724-1.724-1.724" stroke="#555" stroke-width=".5" stroke-miterlimit="10"/></svg>