<svg width="20" height="20" fill="none" xmlns="http://www.w3.org/2000/svg"><path d="M19.45 15.96v.5h.016a3.52 3.52 0 01-3.506 3.04H4.04A3.523 3.523 0 01.5 15.96V4.04A3.523 3.523 0 014.04.5h11.87a3.523 3.523 0 013.54 3.54v11.92z" stroke="#000" stroke-miterlimit="10"/><path d="M16.409 2.793a.894.894 0 00-.898.898c0 .499.399.898.898.898a.894.894 0 00.897-.898.894.894 0 00-.898-.898z" fill="#000"/><path d="M15.11 10.017h0v.008a5.077 5.077 0 01-5.085 5.086 5.077 5.077 0 01-5.087-5.086c0-2.767 2.32-5.086 5.087-5.086 2.82 0 5.13 2.322 5.086 5.078z" stroke="#000" stroke-miterlimit="10"/></svg>