<svg xmlns="http://www.w3.org/2000/svg" style="display: none;">

<symbol id="search" width="17" height="17" viewBox="17 17 17 17" fill="none">
<path d="M5.62453 0.811016C6.90224 0.811016 8.12762 1.31859 9.0311 2.22207C9.93458 3.12555 10.4422 4.35093 10.4422 5.62864C10.4397 6.58114 10.155 7.51156 9.62397 8.3023C9.09294 9.09304 8.33941 9.70861 7.45863 10.0712C6.57785 10.4339 5.60934 10.5273 4.6755 10.3396C3.74166 10.152 2.88439 9.69173 2.21204 9.01704C1.54414 8.34199 1.09063 7.48462 0.908501 6.55263C0.726368 5.62064 0.823732 4.65561 1.18836 3.77878C1.55299 2.90196 2.16862 2.15245 2.9579 1.62442C3.74718 1.0964 4.67491 0.813412 5.62453 0.811016ZM5.62453 0.00807821C4.51612 0.0111485 3.43336 0.341879 2.51242 0.958678C1.59147 1.57548 0.873461 2.45081 0.448672 3.47459C0.023883 4.49837 -0.0887159 5.6249 0.125035 6.71251C0.338786 7.80012 0.869343 8.80025 1.64999 9.58712C2.3021 10.2444 3.10649 10.7305 3.99169 11.002C4.87688 11.2736 5.81546 11.3222 6.72399 11.1437C7.63252 10.9651 8.48287 10.5649 9.19946 9.97853C9.91604 9.39217 10.4767 8.63786 10.8315 7.78265C11.1864 6.92743 11.3244 5.99779 11.2335 5.07636C11.1425 4.15493 10.8253 3.27025 10.31 2.50094C9.7948 1.73163 9.09748 1.10153 8.28006 0.66663C7.46264 0.231733 6.55043 0.00551346 5.62453 0.00807821Z" fill="black"/>
<path d="M15.8458 15.8744C15.7329 15.9871 15.5798 16.0505 15.4202 16.0505C15.2607 16.0505 15.1076 15.9871 14.9947 15.8744L8.90039 9.78007L9.7515 8.92896L15.8458 15.0152C15.9572 15.1305 16.0194 15.2845 16.0194 15.4448C16.0194 15.6051 15.9572 15.7591 15.8458 15.8744Z" fill="black"/>
</symbol>

</svg>