<svg width="8" height="5" viewBox="0 0 8 5" fill="none" xmlns="http://www.w3.org/2000/svg">
<path d="M3.12739 4.5356C3.06176 4.53573 2.99675 4.52291 2.93608 4.49785C2.87542 4.4728 2.8203 4.43601 2.77389 4.3896L0.652893 2.2681C0.605107 2.22201 0.566978 2.16687 0.540731 2.10588C0.514484 2.0449 0.500645 1.9793 0.500022 1.91291C0.499399 1.84652 0.512003 1.78067 0.5371 1.71921C0.562197 1.65774 0.599284 1.60189 0.646197 1.55491C0.693109 1.50793 0.748908 1.47077 0.810338 1.44558C0.871768 1.4204 0.937598 1.4077 1.00399 1.40823C1.07038 1.40876 1.136 1.42251 1.19702 1.44867C1.25804 1.47483 1.31324 1.51288 1.35939 1.5606L3.12689 3.3281L6.30939 0.146601C6.40315 0.0527811 6.53033 4.69154e-05 6.66297 3.12888e-08C6.7956 -4.68528e-05 6.92282 0.0525973 7.01664 0.146351C7.11046 0.240105 7.1632 0.36729 7.16324 0.499925C7.16329 0.63256 7.11065 0.759781 7.01689 0.853602L3.48089 4.3896C3.43448 4.43601 3.37936 4.4728 3.3187 4.49785C3.25804 4.52291 3.19303 4.53573 3.12739 4.5356V4.5356Z" fill="black"/>
</svg>
