<svg width="17" height="22" viewBox="0 0 17 22" fill="none" xmlns="http://www.w3.org/2000/svg">
<path d="M13.4185 20.9963H3.66562C2.08939 20.9963 0.907221 19.7028 1.00573 18.1107L2.08939 6.17037C2.08939 5.87186 2.38493 5.67285 2.68048 5.67285H14.4037C14.6992 5.67285 14.8962 5.87186 14.9948 6.17037L15.9799 18.0112C16.1769 19.6033 14.8962 20.9963 13.4185 20.9963Z" stroke="#F9F6F2" stroke-miterlimit="10"/>
<path d="M4.84766 7.86569V4.7811C4.84766 2.69155 6.5224 1 8.5912 1C10.66 1 12.3347 2.69155 12.3347 4.7811V7.76619" stroke="#F9F6F2" stroke-miterlimit="10" stroke-linecap="round"/>
<path d="M13.4185 20.9963H3.66562C2.08939 20.9963 0.907221 19.7028 1.00573 18.1107L2.08939 6.17037C2.08939 5.87186 2.38493 5.67285 2.68048 5.67285H14.4037C14.6992 5.67285 14.8962 5.87186 14.9948 6.17037L15.9799 18.0112C16.1769 19.6033 14.8962 20.9963 13.4185 20.9963Z" fill="#F9F6F2" stroke="#F9F6F2" stroke-miterlimit="10"/>
<path d="M4.84766 7.86569V4.7811C4.84766 2.69155 6.5224 1 8.5912 1C10.66 1 12.3347 2.69155 12.3347 4.7811V7.76619" stroke="#F9F6F2" stroke-miterlimit="10" stroke-linecap="round"/>
</svg>
