<svg width="17" height="18" viewBox="0 0 17 18" fill="none" xmlns="http://www.w3.org/2000/svg">
<path d="M15.8124 7.91637L8.83724 1.17634C8.60212 0.941221 8.28863 0.941221 8.13189 1.17634L1.15674 7.91637C1.07837 7.99474 1 8.15148 1 8.30823C1 8.62172 1.23512 8.85683 1.54861 8.85683H2.48908V16.2238C2.48908 16.5373 2.72419 16.7724 3.03768 16.7724H6.72119C7.03468 16.7724 7.26979 16.5373 7.26979 16.2238V11.9917H9.93445V16.2238C9.93445 16.5373 10.1696 16.7724 10.4831 16.7724H14.1666C14.4801 16.7724 14.7152 16.5373 14.7152 16.2238V8.85683H15.4989C15.6556 8.85683 15.8124 8.77846 15.8908 8.70009C16.0475 8.46497 16.0475 8.07311 15.8124 7.91637Z" stroke="#555555" stroke-width="0.5" stroke-miterlimit="10"/>
</svg>
