<svg width="270" height="31" viewBox="0 0 270 31" fill="none" xmlns="http://www.w3.org/2000/svg">
<g clip-path="url(#clip0)">
<path d="M17.3262 30.2081C18.1037 29.9818 18.659 29.6424 19.3254 29.303C19.8807 28.9636 20.436 28.511 20.7692 28.0584C21.1024 27.6059 21.4356 27.0402 21.6578 26.5876C21.8799 26.022 21.991 25.5694 21.991 25.0037C21.991 24.438 21.8799 23.8723 21.6578 23.3066C21.4356 22.7409 21.1024 22.2884 20.6582 21.8358C20.2139 21.3833 19.5475 21.0438 18.8811 20.7044C18.1037 20.365 17.2151 20.0256 16.1045 19.9125L14.3274 19.573L16.1045 19.1205C17.6594 18.6679 18.8811 17.9891 19.6586 17.1971C20.436 16.292 20.8803 15.3869 20.8803 14.2555C20.8803 12.4453 19.9918 10.9745 18.1037 9.95626C16.2155 8.93801 13.3279 8.37231 9.55163 8.37231H0C0.333196 8.48545 0.555327 8.59859 0.888523 8.82487C1.22172 9.16429 1.44385 9.5037 1.66598 10.0694C1.77705 10.5219 1.88811 11.2008 1.88811 12.1059V27.1533C1.88811 27.9453 1.77705 28.6241 1.66598 29.1898C1.55492 29.7555 1.33278 30.0949 0.999589 30.4344C0.777458 30.6606 0.444262 30.8869 0.111065 31.0001H10.5512C13.55 30.8869 15.8824 30.6606 17.3262 30.2081ZM4.77581 8.93801L5.10901 8.82487C6.21966 8.59859 7.44138 8.37231 8.88523 8.37231C10.218 8.37231 11.4397 8.48545 12.4393 8.82487C13.4389 9.16429 14.3274 9.5037 14.9938 9.95626C15.6602 10.4088 16.2155 11.0876 16.6598 11.6533C16.993 12.3322 17.2151 13.011 17.2151 13.803C17.2151 15.3869 16.5487 16.6314 15.216 17.6497C13.8832 18.5548 11.884 19.0074 8.9963 19.0074C8.21884 19.0074 7.44138 19.0074 6.77499 18.8942C6.1086 18.8942 5.55327 18.7811 4.99794 18.6679L4.55368 18.5548V8.93801H4.77581ZM5.22007 29.9818L4.88688 29.8687V19.4599L5.22007 19.3468C5.55327 19.4599 6.1086 19.3468 6.66392 19.3468C7.21925 19.3468 7.99671 19.3468 8.88523 19.3468C10.4401 19.3468 11.7729 19.4599 12.8836 19.7993C13.9942 20.1387 14.9938 20.4782 15.7713 21.0438C16.5487 21.6095 17.1041 22.1752 17.5483 22.9672C17.8815 23.646 18.1037 24.438 18.1037 25.23C18.1037 25.9088 17.8815 26.7008 17.5483 27.3796C17.2151 28.0584 16.6598 28.6241 15.9934 29.0767C15.327 29.5293 14.4385 29.9818 13.4389 30.2081C12.4393 30.4344 11.2176 30.6606 9.99589 30.6606C8.32991 30.5475 6.77499 30.3212 5.22007 29.9818Z" fill="#1A1A1A"/>
<path d="M41.2055 28.2848C40.9834 28.7373 40.6502 29.1899 40.317 29.5293C39.9838 29.8687 39.5396 30.095 39.0953 30.3213C38.7621 30.4344 38.4289 30.5476 38.0957 30.5476H44.5375C44.4264 30.5476 44.3154 30.5476 44.2043 30.4344C43.76 30.3213 43.4268 30.2081 43.0936 30.095C42.7604 29.9819 42.5383 29.7556 42.4273 29.5293C42.3162 29.303 42.3162 29.0768 42.3162 28.8505C42.3162 28.3979 42.5383 27.606 42.9826 26.7008L44.9818 22.8541H56.1994L57.9764 26.3614C58.5317 27.4928 58.8649 28.2848 58.8649 28.8505C58.8649 29.1899 58.7539 29.7556 58.0875 30.095C57.8653 30.2081 57.4211 30.4344 56.9768 30.4344H65.1957C65.0846 30.4344 64.9735 30.4344 64.8625 30.3213C64.4182 30.2081 63.9739 29.9819 63.5297 29.6424C63.1965 29.303 62.7522 28.9636 62.419 28.3979C62.0858 27.9454 61.7526 27.2665 61.3084 26.4746L51.8678 8.03296H51.6457L42.0941 26.5877C41.7609 27.2665 41.4277 27.8322 41.2055 28.2848ZM50.7572 11.9928L56.0883 22.5147H45.315L50.7572 11.9928Z" fill="#1A1A1A"/>
<path d="M103.513 27.3795C103.068 28.0583 102.624 28.5109 102.069 28.9635C101.514 29.3029 100.847 29.6423 100.181 29.7554C99.5144 29.8686 98.7369 29.9817 97.8484 29.9817H85.7422L103.846 8.48535H84.6316C84.6316 8.48535 84.4094 12.1058 84.6316 11.6532C84.8537 11.0875 85.1869 10.5218 85.6312 10.1824C86.0754 9.84302 86.6308 9.5036 87.4082 9.39046C88.0746 9.27732 89.0742 9.16418 90.1849 9.16418H99.8476L81.6328 30.4343V30.5474H103.402C103.402 30.5474 103.846 26.927 103.513 27.3795Z" fill="#1A1A1A"/>
<path d="M140.276 8.82473C140.498 8.93787 140.72 9.051 140.942 9.27728C141.164 9.50356 141.275 9.72984 141.386 9.95611C141.497 10.1824 141.497 10.5218 141.608 10.8612C141.608 11.2006 141.608 11.6532 141.608 12.2189V19.1203H127.947V12.2189C127.947 11.0875 128.058 10.2955 128.169 9.84297C128.281 9.6167 128.503 9.39042 128.725 9.16414C128.947 9.051 129.169 8.82473 129.502 8.71159C129.724 8.59845 129.947 8.59845 130.169 8.48531H122.616C122.949 8.59845 123.283 8.71159 123.505 8.82473C123.838 8.93787 124.06 9.051 124.171 9.27728C124.393 9.50356 124.504 9.6167 124.615 9.95611C124.726 10.1824 124.726 10.5218 124.838 10.8612C124.838 11.2006 124.838 11.6532 124.838 12.2189V26.9269C124.838 28.3977 124.615 29.3028 124.282 29.7554C123.949 30.2079 123.394 30.4342 122.727 30.5474H130.28C129.947 30.4342 129.613 30.3211 129.391 30.2079C129.169 30.0948 128.947 29.9817 128.725 29.7554C128.503 29.6422 128.392 29.416 128.281 29.0766C128.169 28.8503 128.169 28.5109 128.058 28.1714C128.058 27.832 128.058 27.3795 128.058 26.8138V19.4598H141.719V26.8138C141.719 27.6058 141.608 28.2846 141.497 28.7371C141.386 29.3028 141.164 29.6422 140.831 29.9817C140.498 30.2079 140.276 30.4342 139.831 30.4342H147.051C146.717 30.3211 146.384 30.2079 146.162 30.0948C145.829 29.9817 145.607 29.8685 145.496 29.6422C145.274 29.5291 145.162 29.1897 145.051 28.9634C144.94 28.7371 144.94 28.3977 144.829 28.0583C144.829 27.7189 144.829 27.2663 144.829 26.7006V11.9926C144.829 10.7481 144.94 10.0693 145.051 9.6167C145.162 9.39042 145.385 9.16414 145.607 8.93787C145.829 8.82473 146.051 8.59845 146.384 8.48531C146.606 8.37217 146.828 8.37217 147.051 8.25903H139.498C139.72 8.59845 140.053 8.71159 140.276 8.82473Z" fill="#1A1A1A"/>
<path d="M165.821 28.2848C165.599 28.7373 165.265 29.1899 164.932 29.5293C164.599 29.8687 164.155 30.095 163.711 30.3213C163.377 30.4344 163.044 30.5476 162.711 30.5476H169.153C169.042 30.5476 168.931 30.5476 168.82 30.4344C168.375 30.3213 168.042 30.2081 167.709 30.095C167.376 29.9819 167.154 29.7556 167.042 29.5293C166.931 29.303 166.931 29.0768 166.931 28.8505C166.931 28.3979 167.154 27.606 167.598 26.7008L169.597 22.8541H180.815L182.592 26.3614C183.147 27.4928 183.48 28.2848 183.48 28.8505C183.48 29.1899 183.369 29.7556 182.703 30.095C182.481 30.2081 182.036 30.4344 181.592 30.4344H189.811C189.7 30.4344 189.589 30.4344 189.478 30.3213C189.033 30.2081 188.589 29.9819 188.145 29.6424C187.812 29.303 187.367 28.9636 187.034 28.3979C186.701 27.9454 186.368 27.2665 185.924 26.4746L176.594 8.03296H176.372L166.82 26.5877C166.376 27.2665 166.154 27.8322 165.821 28.2848ZM175.372 11.9928L180.704 22.5147H169.93L175.372 11.9928Z" fill="#1A1A1A"/>
<path d="M230.35 8.48535H225.574C225.907 8.59849 226.241 8.71163 226.574 8.93791C226.907 9.16418 227.129 9.61674 227.24 10.0693C227.351 10.5218 227.462 11.2007 227.462 11.9927V26.135L210.025 8.48535H204.472C204.583 8.48535 204.583 8.48535 204.583 8.48535C205.027 8.59849 205.36 8.71163 205.693 8.82477C206.027 8.93791 206.249 9.05104 206.582 9.27732C206.804 9.39046 207.137 9.61674 207.359 9.84302C207.693 10.0693 208.026 10.4087 208.359 10.8613L208.47 10.9744V27.0401C208.47 27.8321 208.359 28.3978 208.248 28.9635C208.137 29.5291 207.915 29.8686 207.581 30.0948C207.248 30.3211 206.915 30.5474 206.582 30.6605H211.247C210.913 30.5474 210.58 30.4343 210.358 30.208C210.025 29.9817 209.803 29.5291 209.692 29.0766C209.581 28.624 209.47 27.9452 209.47 27.1532V11.9927L228.24 31H228.351V12.1058C228.351 11.3138 228.462 10.7481 228.573 10.1824C228.684 9.72988 228.906 9.27732 229.239 9.05105C229.572 8.82477 229.906 8.59849 230.35 8.48535Z" fill="#1A1A1A"/>
<path d="M268.223 28.624C267.889 28.9635 267.556 29.1897 267.223 29.3029C266.89 29.5292 266.446 29.6423 266.112 29.7554C265.668 29.8686 265.224 29.9817 264.668 29.9817C264.113 29.9817 263.447 29.9817 262.669 29.9817H258.005C257.338 29.9817 256.894 29.9817 256.561 29.8686C256.116 29.7554 255.894 29.6423 255.672 29.416C255.45 29.1897 255.339 28.8503 255.339 28.3978C255.339 28.0583 255.339 27.6058 255.339 27.0401V19.1204H261.781C262.225 19.1204 262.558 19.1204 262.891 19.1204V18.5547C262.558 18.5547 262.225 18.6678 261.781 18.6678H255.339V9.05105H263.336C264.224 9.05105 265.113 9.05105 265.668 9.16418C266.334 9.27732 266.89 9.39046 267.334 9.72988C267.778 10.0693 268.111 10.5218 268.334 10.9744C268.445 11.2007 268.556 11.5401 268.667 11.8795V8.48535H250.119C250.674 8.59849 251.23 8.82477 251.563 9.16418C252.007 9.61674 252.229 10.5218 252.229 12.1058V26.927C252.229 28.0583 252.118 28.8503 252.007 29.3029C251.896 29.5292 251.674 29.7554 251.452 29.9817C251.23 30.208 250.896 30.3211 250.674 30.4343C250.452 30.5474 250.23 30.5474 250.008 30.6605H268.889L270.222 26.3613C269.111 27.7189 269 28.0583 268.223 28.624Z" fill="#1A1A1A"/>
<path d="M57.0876 0H61.0859L56.7544 4.75182H53.6445L57.0876 0Z" fill="#1A1A1A"/>
</g>
<defs>
<clipPath id="clip0">
<rect width="270" height="31" fill="white"/>
</clipPath>
</defs>
</svg>
