<svg width="17" height="17" viewBox="0 0 17 17" fill="none" xmlns="http://www.w3.org/2000/svg">
<path d="M8.5 3.69922V8.49922L10.975 11.1242" stroke="#555555" stroke-width="0.5" stroke-miterlimit="10" stroke-linecap="round"/>
<path d="M8.5 16C12.6421 16 16 12.6421 16 8.5C16 4.35786 12.6421 1 8.5 1C4.35786 1 1 4.35786 1 8.5C1 12.6421 4.35786 16 8.5 16Z" stroke="#555555" stroke-width="0.5" stroke-miterlimit="10"/>
<path d="M8.5 1V2.05" stroke="#555555" stroke-width="0.5" stroke-miterlimit="10" stroke-linecap="round"/>
<path d="M8.5 14.9492V15.9992" stroke="#555555" stroke-width="0.5" stroke-miterlimit="10" stroke-linecap="round"/>
<path d="M3.17578 3.17578L3.92578 3.92578" stroke="#555555" stroke-width="0.5" stroke-miterlimit="10" stroke-linecap="round"/>
<path d="M13.0742 13.0742L13.8242 13.8242" stroke="#555555" stroke-width="0.5" stroke-miterlimit="10" stroke-linecap="round"/>
<path d="M1 8.5H2.05" stroke="#555555" stroke-width="0.5" stroke-miterlimit="10" stroke-linecap="round"/>
<path d="M14.9492 8.5H15.9992" stroke="#555555" stroke-width="0.5" stroke-miterlimit="10" stroke-linecap="round"/>
<path d="M3.17578 13.8242L3.92578 13.0742" stroke="#555555" stroke-width="0.5" stroke-miterlimit="10" stroke-linecap="round"/>
<path d="M13.0742 3.92578L13.8242 3.17578" stroke="#555555" stroke-width="0.5" stroke-miterlimit="10" stroke-linecap="round"/>
</svg>
