<svg width="24" height="22" viewBox="0 0 24 22" fill="none" xmlns="http://www.w3.org/2000/svg">
<path d="M23 7.3C23 4 20.6789 1 17.0459 1C14.2202 1 12.6055 3 12 4.9C11.3945 3 9.77982 1 6.95413 1C3.42202 1 1 4 1 7.2C1 7.2 1 7.2 1 7.3C1 8 1 15.2 11.8991 21C23 15.2 23 8 23 7.3Z" stroke="#F9F6F2" stroke-miterlimit="10" stroke-linejoin="round"/>
<path d="M23 7.3C23 4 20.6789 1 17.0459 1C14.2202 1 12.6055 3 12 4.9C11.3945 3 9.77982 1 6.95413 1C3.42202 1 1 4 1 7.2C1 7.2 1 7.2 1 7.3C1 8 1 15.2 11.8991 21C23 15.2 23 8 23 7.3Z" fill="#F9F6F2"/>
</svg>
