<svg width="17" height="17" viewBox="0 0 17 17" fill="none" xmlns="http://www.w3.org/2000/svg">
<path d="M15.6127 12.5522L12.6146 10.5285C12.2398 10.3036 11.7151 10.3786 11.4153 10.7534L10.5159 11.8776C10.366 12.0275 10.2161 12.1025 10.0662 11.9526L9.84135 11.8776C9.31668 11.5778 8.56716 11.2031 7.21802 9.77898C5.86889 8.35489 5.41917 7.68032 5.11937 7.15566L5.04441 7.00575C4.89451 6.85585 4.96946 6.63099 5.11937 6.48109L6.24365 5.58166C6.61841 5.35681 6.69336 4.83214 6.4685 4.45738L4.4448 1.38435C4.14499 1.00959 3.62032 0.859682 3.24556 1.15949L1.97138 1.90901C1.59662 2.13387 1.29681 2.50863 1.14691 2.95834C0.697194 4.60729 1.07195 7.53042 5.26927 11.7277C8.64211 15.1006 11.1155 16 12.8394 16C13.2142 16 13.6639 15.925 14.0387 15.8501C14.4884 15.7002 14.8631 15.4004 15.088 15.0256L15.8375 13.7514C16.1373 13.3767 15.9874 12.852 15.6127 12.5522Z" stroke="#555555" stroke-width="0.5" stroke-miterlimit="10"/>
<path d="M14.263 7.75518C14.263 5.13186 12.1643 3.0332 9.54102 3.0332" stroke="#555555" stroke-width="0.5" stroke-miterlimit="10"/>
<path d="M12.764 7.75517C12.764 5.95632 11.3399 4.53223 9.54102 4.53223" stroke="#555555" stroke-width="0.5" stroke-miterlimit="10"/>
<path d="M11.2649 7.75515C11.2649 6.78077 10.5154 6.03125 9.54102 6.03125" stroke="#555555" stroke-width="0.5" stroke-miterlimit="10"/>
</svg>
