<svg width="20" height="20" viewBox="0 0 20 20" fill="none" xmlns="http://www.w3.org/2000/svg">
<path d="M19.4501 15.9601V16.4601H19.4656C19.2258 18.1879 17.7585 19.5 15.9601 19.5H4.0399C2.07165 19.5 0.5 17.9283 0.5 15.9601V4.0399C0.5 2.07165 2.07165 0.5 4.0399 0.5H15.9102C17.8785 0.5 19.4501 2.07165 19.4501 4.0399V15.9601Z" stroke="black" stroke-miterlimit="10"/>
<path d="M16.4085 2.79321C15.9097 2.79321 15.5107 3.19222 15.5107 3.69097C15.5107 4.18972 15.9097 4.58872 16.4085 4.58872C16.9073 4.58872 17.3063 4.18972 17.3063 3.69097C17.3063 3.19222 16.9073 2.79321 16.4085 2.79321Z" fill="black"/>
<path d="M15.1106 10.0166L15.1105 10.0166V10.0248C15.1105 12.8409 12.8406 15.1108 10.0245 15.1108C7.20838 15.1108 4.93848 12.8409 4.93848 10.0248C4.93848 7.2585 7.25826 4.93872 10.0245 4.93872C12.8453 4.93872 15.1558 7.26124 15.1106 10.0166Z" stroke="black" stroke-miterlimit="10"/>
</svg>
