<svg width="305" height="35" viewBox="0 0 305 35" fill="none" xmlns="http://www.w3.org/2000/svg">
<g clip-path="url(#clip0)">
<path d="M19.5722 34.1059C20.4504 33.8505 21.0777 33.4672 21.8305 33.084C22.4578 32.7008 23.0851 32.1899 23.4615 31.6789C23.8379 31.168 24.2143 30.5293 24.4652 30.0183C24.7162 29.3796 24.8416 28.8687 24.8416 28.23C24.8416 27.5913 24.7162 26.9526 24.4652 26.314C24.2143 25.6753 23.8379 25.1643 23.3361 24.6534C22.8342 24.1424 22.0814 23.7592 21.3287 23.376C20.4504 22.9928 19.4467 22.6096 18.1921 22.4818L16.1847 22.0986L18.1921 21.5877C19.9486 21.0767 21.3287 20.3103 22.2069 19.4161C23.0851 18.3942 23.587 17.3723 23.587 16.095C23.587 14.0512 22.5833 12.3906 20.4504 11.241C18.3176 10.0913 15.0555 9.45264 10.7898 9.45264H0C0.376388 9.58037 0.627314 9.70811 1.0037 9.96359C1.38009 10.3468 1.63102 10.73 1.88194 11.3687C2.0074 11.8796 2.13287 12.6461 2.13287 13.668V30.657C2.13287 31.5512 2.0074 32.3176 1.88194 32.9563C1.75648 33.595 1.50555 33.9782 1.12916 34.3614C0.878239 34.6169 0.501851 34.8723 0.125463 35.0001H11.919C15.3065 34.8723 17.9412 34.6169 19.5722 34.1059ZM5.3949 10.0913L5.77129 9.96359C7.02592 9.70811 8.40601 9.45264 10.037 9.45264C11.5426 9.45264 12.9227 9.58037 14.0518 9.96359C15.181 10.3468 16.1847 10.73 16.9375 11.241C17.6903 11.7519 18.3176 12.5183 18.8194 13.157C19.1958 13.9234 19.4467 14.6899 19.4467 15.584C19.4467 17.3723 18.694 18.7775 17.1884 19.9271C15.6828 20.949 13.4245 21.4599 10.1625 21.4599C9.28425 21.4599 8.40601 21.4599 7.65323 21.3322C6.90045 21.3322 6.27314 21.2045 5.64582 21.0767L5.14397 20.949V10.0913H5.3949ZM5.89675 33.8504L5.52036 33.7227V21.9709L5.89675 21.8431C6.27314 21.9709 6.90045 21.8431 7.52777 21.8431C8.15508 21.8431 9.03332 21.8431 10.037 21.8431C11.7935 21.8431 13.2991 21.9709 14.5537 22.3541C15.8083 22.7373 16.9375 23.1205 17.8157 23.7592C18.694 24.3979 19.3213 25.0366 19.8231 25.9307C20.1995 26.6972 20.4504 27.5913 20.4504 28.4855C20.4504 29.2519 20.1995 30.1461 19.8231 30.9125C19.4467 31.6789 18.8194 32.3176 18.0666 32.8286C17.3139 33.3395 16.3102 33.8505 15.181 34.1059C14.0518 34.3614 12.6717 34.6169 11.2916 34.6169C9.40971 34.4891 7.65323 34.2337 5.89675 33.8504Z" fill="#1A1A1A"/>
<path d="M46.5462 31.9343C46.2952 32.4452 45.9188 32.9562 45.5425 33.3394C45.1661 33.7226 44.6642 33.9781 44.1624 34.2336C43.786 34.3613 43.4096 34.489 43.0332 34.489H50.31C50.1846 34.489 50.0591 34.489 49.9337 34.3613C49.4318 34.2336 49.0554 34.1058 48.679 33.9781C48.3026 33.8504 48.0517 33.5949 47.9263 33.3394C47.8008 33.0839 47.8008 32.8285 47.8008 32.573C47.8008 32.062 48.0517 31.1679 48.5536 30.146L50.8119 25.8029H63.4836L65.491 29.7628C66.1184 31.0401 66.4947 31.9343 66.4947 32.573C66.4947 32.9562 66.3693 33.5949 65.6165 33.9781C65.3656 34.1058 64.8637 34.3613 64.3619 34.3613H73.6461C73.5207 34.3613 73.3952 34.3613 73.2697 34.2336C72.7679 34.1058 72.266 33.8504 71.7642 33.4671C71.3878 33.0839 70.8859 32.7007 70.5096 32.062C70.1332 31.5511 69.7568 30.7847 69.2549 29.8905L58.5906 9.06934H58.3397L47.5499 30.0182C47.1735 30.7847 46.7971 31.4234 46.5462 31.9343ZM57.336 13.5401L63.3582 25.4197H51.1883L57.336 13.5401Z" fill="#1A1A1A"/>
<path d="M116.931 30.9124C116.429 31.6789 115.927 32.1898 115.3 32.7008C114.673 33.084 113.92 33.4672 113.167 33.5949C112.414 33.7227 111.536 33.8504 110.532 33.8504H96.857L117.307 9.58032H95.6023C95.6023 9.58032 95.3514 13.6679 95.6023 13.157C95.8533 12.5183 96.2297 11.8796 96.7315 11.4964C97.2334 11.1132 97.8607 10.73 98.7389 10.6022C99.4917 10.4745 100.621 10.3467 101.875 10.3467H112.791L92.2148 34.3613V34.4891H116.806C116.806 34.4891 117.307 30.4015 116.931 30.9124Z" fill="#1A1A1A"/>
<path d="M158.459 9.96339C158.71 10.0911 158.961 10.2189 159.212 10.4743C159.463 10.7298 159.588 10.9853 159.714 11.2408C159.839 11.4962 159.839 11.8795 159.965 12.2627C159.965 12.6459 159.965 13.1568 159.965 13.7955V21.5875H144.533V13.7955C144.533 12.5181 144.658 11.624 144.784 11.113C144.909 10.8576 145.16 10.6021 145.411 10.3466C145.662 10.2189 145.913 9.96339 146.289 9.83566C146.54 9.70792 146.791 9.70792 147.042 9.58018H138.511C138.887 9.70792 139.264 9.83566 139.514 9.96339C139.891 10.0911 140.142 10.2189 140.267 10.4743C140.518 10.7298 140.644 10.8576 140.769 11.2408C140.895 11.4962 140.895 11.8795 141.02 12.2627C141.02 12.6459 141.02 13.1568 141.02 13.7955V30.4013C141.02 32.0619 140.769 33.0838 140.393 33.5948C140.016 34.1057 139.389 34.3612 138.636 34.4889H147.168C146.791 34.3612 146.415 34.2335 146.164 34.1057C145.913 33.978 145.662 33.8503 145.411 33.5948C145.16 33.467 145.035 33.2116 144.909 32.8284C144.784 32.5729 144.784 32.1897 144.658 31.8065C144.658 31.4232 144.658 30.9123 144.658 30.2736V21.9707H160.09V30.2736C160.09 31.1678 159.965 31.9342 159.839 32.4451C159.714 33.0838 159.463 33.467 159.087 33.8503C158.71 34.1057 158.459 34.3612 157.957 34.3612H166.113C165.736 34.2335 165.36 34.1057 165.109 33.978C164.732 33.8503 164.482 33.7225 164.356 33.467C164.105 33.3393 163.98 32.9561 163.854 32.7006C163.729 32.4451 163.729 32.0619 163.603 31.6787C163.603 31.2955 163.603 30.7846 163.603 30.1459V13.54C163.603 12.1349 163.729 11.3685 163.854 10.8576C163.98 10.6021 164.231 10.3466 164.482 10.0911C164.732 9.96339 164.983 9.70792 165.36 9.58018C165.611 9.45244 165.862 9.45244 166.113 9.32471H157.581C157.832 9.70792 158.208 9.83566 158.459 9.96339Z" fill="#1A1A1A"/>
<path d="M187.316 31.9343C187.065 32.4452 186.688 32.9562 186.312 33.3394C185.936 33.7226 185.434 33.9781 184.932 34.2336C184.556 34.3613 184.179 34.489 183.803 34.489H191.08C190.954 34.489 190.829 34.489 190.703 34.3613C190.201 34.2336 189.825 34.1058 189.449 33.9781C189.072 33.8504 188.821 33.5949 188.696 33.3394C188.57 33.0839 188.57 32.8285 188.57 32.573C188.57 32.062 188.821 31.1679 189.323 30.146L191.581 25.8029H204.253L206.261 29.7628C206.888 31.0401 207.264 31.9343 207.264 32.573C207.264 32.9562 207.139 33.5949 206.386 33.9781C206.135 34.1058 205.633 34.3613 205.131 34.3613H214.416C214.29 34.3613 214.165 34.3613 214.039 34.2336C213.537 34.1058 213.036 33.8504 212.534 33.4671C212.157 33.0839 211.655 32.7007 211.279 32.062C210.903 31.5511 210.526 30.7847 210.024 29.8905L199.486 9.06934H199.235L188.445 30.0182C187.943 30.7847 187.692 31.4234 187.316 31.9343ZM198.105 13.5401L204.128 25.4197H191.958L198.105 13.5401Z" fill="#1A1A1A"/>
<path d="M260.209 9.58032H254.814C255.191 9.70806 255.567 9.8358 255.944 10.0913C256.32 10.3467 256.571 10.8577 256.696 11.3686C256.822 11.8796 256.947 12.646 256.947 13.5402V29.5073L237.25 9.58032H230.977C231.102 9.58032 231.102 9.58032 231.102 9.58032C231.604 9.70806 231.98 9.8358 232.357 9.96353C232.733 10.0913 232.984 10.219 233.36 10.4745C233.611 10.6022 233.988 10.8577 234.239 11.1132C234.615 11.3686 234.991 11.7519 235.368 12.2628L235.493 12.3905V30.5292C235.493 31.4234 235.368 32.0621 235.242 32.7008C235.117 33.3394 234.866 33.7227 234.49 33.9781C234.113 34.2336 233.737 34.4891 233.36 34.6168H238.63C238.253 34.4891 237.877 34.3613 237.626 34.1059C237.25 33.8504 236.999 33.3394 236.873 32.8285C236.748 32.3175 236.622 31.5511 236.622 30.657V13.5402L257.826 35H257.951V13.6679C257.951 12.7738 258.077 12.1351 258.202 11.4964C258.327 10.9854 258.578 10.4745 258.955 10.219C259.331 9.96353 259.708 9.70806 260.209 9.58032Z" fill="#1A1A1A"/>
<path d="M302.993 32.3175C302.616 32.7008 302.24 32.9562 301.864 33.084C301.487 33.3394 300.985 33.4672 300.609 33.5949C300.107 33.7227 299.605 33.8504 298.978 33.8504C298.351 33.8504 297.598 33.8504 296.72 33.8504H291.45C290.698 33.8504 290.196 33.8504 289.819 33.7227C289.317 33.5949 289.067 33.4672 288.816 33.2117C288.565 32.9562 288.439 32.573 288.439 32.0621C288.439 31.6789 288.439 31.1679 288.439 30.5292V21.5876H295.716C296.218 21.5876 296.594 21.5876 296.971 21.5876V20.9489C296.594 20.9489 296.218 21.0767 295.716 21.0767H288.439V10.219H297.473C298.476 10.219 299.48 10.219 300.107 10.3467C300.86 10.4745 301.487 10.6022 301.989 10.9854C302.491 11.3686 302.867 11.8796 303.118 12.3905C303.244 12.646 303.369 13.0292 303.495 13.4124V9.58032H282.542C283.17 9.70806 283.797 9.96353 284.173 10.3467C284.675 10.8577 284.926 11.8796 284.926 13.6679V30.4015C284.926 31.6789 284.801 32.573 284.675 33.084C284.55 33.3394 284.299 33.5949 284.048 33.8504C283.797 34.1059 283.421 34.2336 283.17 34.3613C282.919 34.4891 282.668 34.4891 282.417 34.6168H303.746L305.251 29.7628C303.997 31.2957 303.871 31.6789 302.993 32.3175Z" fill="#1A1A1A"/>
<path d="M64.488 0H69.0046L64.1116 5.36496H60.5986L64.488 0Z" fill="#1A1A1A"/>
</g>
<defs>
<clipPath id="clip0">
<rect width="305" height="35" fill="white"/>
</clipPath>
</defs>
</svg>
