<svg width="50" height="50" viewBox="0 0 50 50" fill="none" xmlns="http://www.w3.org/2000/svg">
<path d="M25 22V28H33.4864C32.8638 29.7535 31.714 31.2715 30.1946 32.3457C28.6753 33.4199 26.8608 33.9978 25 34C22.614 33.9968 20.3267 33.0476 18.6395 31.3605C16.9524 29.6733 16.0032 27.386 16 25C16.0032 22.614 16.9524 20.3267 18.6395 18.6395C20.3267 16.9524 22.614 16.0032 25 16C27.1504 16 29.2216 16.7704 30.8296 18.172L34.768 13.648C32.0592 11.2925 28.5896 9.99676 25 10C21.0231 10.0045 17.2104 11.5862 14.3983 14.3983C11.5862 17.2104 10.0044 21.0231 10 25C10.0044 28.9769 11.5862 32.7896 14.3983 35.6017C17.2104 38.4138 21.0231 39.9956 25 40C28.9769 39.9956 32.7896 38.4138 35.6017 35.6017C38.4138 32.7896 39.9955 28.9769 40 25V22H25Z" fill="black"/>
<rect x="0.5" y="0.5" width="49" height="49" stroke="black"/>
</svg>
